<svg xmlns="http://www.w3.org/2000/svg" viewBox="0 0 1024 1024" role="img" aria-label="Codexit">
  <defs>
    <linearGradient id="paper" x1="136" x2="888" y1="88" y2="952" gradientUnits="userSpaceOnUse">
      <stop stop-color="#FFFDF8"/>
      <stop offset="1" stop-color="#E9E1D2"/>
    </linearGradient>
    <linearGradient id="rail" x1="232" x2="800" y1="304" y2="736" gradientUnits="userSpaceOnUse">
      <stop stop-color="#2E6F56"/>
      <stop offset="1" stop-color="#326B9D"/>
    </linearGradient>
  </defs>
  <rect width="1024" height="1024" rx="176" fill="#F4F1EA"/>
  <rect x="80" y="80" width="864" height="864" rx="144" fill="url(#paper)" stroke="#CFC6B7" stroke-width="8"/>
  <path d="M288 316h432c40 0 72 32 72 72v248c0 40-32 72-72 72H288c-40 0-72-32-72-72V388c0-40 32-72 72-72Z" fill="#202722"/>
  <path d="M304 420l120 92-120 92" fill="none" stroke="#FFFDF8" stroke-linecap="round" stroke-linejoin="round" stroke-width="52"/>
  <path d="M484 604h156" fill="none" stroke="#94B8A7" stroke-linecap="round" stroke-width="52"/>
  <path d="M608 256h140c68 0 124 56 124 124v264c0 68-56 124-124 124H608" fill="none" stroke="url(#rail)" stroke-linecap="round" stroke-width="56"/>
  <path d="M724 508h180" fill="none" stroke="#2E6F56" stroke-linecap="round" stroke-width="56"/>
  <path d="M828 424l88 84-88 84" fill="none" stroke="#2E6F56" stroke-linecap="round" stroke-linejoin="round" stroke-width="56"/>
</svg>
