<svg xmlns="http://www.w3.org/2000/svg" viewBox="0 0 256 256" role="img" aria-label="Codexit">
  <defs>
    <linearGradient id="paper" x1="34" x2="222" y1="22" y2="238" gradientUnits="userSpaceOnUse">
      <stop stop-color="#FFFDF8"/>
      <stop offset="1" stop-color="#E9E1D2"/>
    </linearGradient>
    <linearGradient id="rail" x1="58" x2="200" y1="76" y2="184" gradientUnits="userSpaceOnUse">
      <stop stop-color="#2E6F56"/>
      <stop offset="1" stop-color="#326B9D"/>
    </linearGradient>
  </defs>
  <rect width="256" height="256" rx="44" fill="#F4F1EA"/>
  <rect x="20" y="20" width="216" height="216" rx="36" fill="url(#paper)" stroke="#CFC6B7" stroke-width="2"/>
  <path d="M72 79h108c10 0 18 8 18 18v62c0 10-8 18-18 18H72c-10 0-18-8-18-18V97c0-10 8-18 18-18Z" fill="#202722"/>
  <path d="M76 105l30 23-30 23" fill="none" stroke="#FFFDF8" stroke-linecap="round" stroke-linejoin="round" stroke-width="13"/>
  <path d="M121 151h39" fill="none" stroke="#94B8A7" stroke-linecap="round" stroke-width="13"/>
  <path d="M152 64h35c17 0 31 14 31 31v66c0 17-14 31-31 31h-35" fill="none" stroke="url(#rail)" stroke-linecap="round" stroke-width="14"/>
  <path d="M181 127h45" fill="none" stroke="#2E6F56" stroke-linecap="round" stroke-width="14"/>
  <path d="M207 106l22 21-22 21" fill="none" stroke="#2E6F56" stroke-linecap="round" stroke-linejoin="round" stroke-width="14"/>
</svg>
